# xmcd CD database file
#
# Track frame offsets:
#	150
#	18779
#	39629
#	67556
#	91851
#	118959
#	145606
#	168359
#	196038
#	213681
#	234327
#	256831
#	280218
#	306768
#	330858
#
# Disc length: 4608 seconds
#
# Revision: 3
# Processed by: cddbd v1.5.2PL0 Copyright (c) Steve Scherf et al.
# Submitted via: CDex 1.75
#
DISCID=bd11fe0f
DTITLE=Bill Evans - The Complete Bill Evans On Verve CD 13
DYEAR=1997
DGENRE=Jazz
TTITLE0=In A Sentimental Mood
TTITLE1=California Here I Come
TTITLE2=You're Gonna Hear From Me
TTITLE3=Alfie
TTITLE4=Gone With The Wind
TTITLE5=Emily
TTITLE6=G Waltz
TTITLE7=Wrap Your Troubles In Dreams
TTITLE8=In A Sentimental Mood
TTITLE9=California Here I Come
TTITLE10=You're Gonna Hear From Me
TTITLE11=Alfie
TTITLE12=Gone With The Wind
TTITLE13=Emily
TTITLE14=G Waltz
EXTD=YEAR: 1997
EXTT0=
EXTT1=
EXTT2=
EXTT3=
EXTT4=
EXTT5=
EXTT6=
EXTT7=
EXTT8=
EXTT9=
EXTT10=
EXTT11=
EXTT12=
EXTT13=
EXTT14=
PLAYORDER=
